<svg width="22" height="22" viewBox="0 0 22 22" fill="none" xmlns="http://www.w3.org/2000/svg">
<g clip-path="url(#clip0_1_264)">
<path fill-rule="evenodd" clip-rule="evenodd" d="M11 11.9166C13.1963 11.9166 15.1937 12.5528 16.6632 13.4493C17.3965 13.8966 18.0235 14.4246 18.4763 14.9984C18.9218 15.5622 19.25 16.2368 19.25 16.9583C19.25 17.7328 18.8733 18.3433 18.3306 18.7788C17.8173 19.1913 17.1398 19.4644 16.4202 19.6551C14.9738 20.0373 13.0433 20.1666 11 20.1666C8.95675 20.1666 7.02625 20.0382 5.57975 19.6551C4.86017 19.4644 4.18275 19.1913 3.66942 18.7788C3.12583 18.3424 2.75 17.7328 2.75 16.9583C2.75 16.2368 3.07817 15.5622 3.52367 14.9975C3.9765 14.4246 4.60258 13.8975 5.33683 13.4483C6.80625 12.5537 8.80458 11.9166 11 11.9166ZM11 13.7499C9.14558 13.7499 7.47725 14.2908 6.292 15.014C5.69892 15.3752 5.25158 15.7675 4.96283 16.1342C4.66583 16.51 4.58333 16.7942 4.58333 16.9583C4.58333 17.0701 4.61725 17.1883 4.81708 17.3488C5.04533 17.5321 5.44225 17.7218 6.04908 17.8822C7.25725 18.2031 8.99342 18.3333 11 18.3333C13.0075 18.3333 14.7428 18.2022 15.95 17.8822C16.5577 17.7218 16.9547 17.5321 17.1829 17.3488C17.3828 17.1883 17.4167 17.0701 17.4167 16.9583C17.4167 16.7933 17.3342 16.51 17.0381 16.1342C16.7484 15.7675 16.3011 15.3752 15.708 15.014C14.5227 14.2898 12.8544 13.7499 11 13.7499ZM11 1.83325C12.2156 1.83325 13.3814 2.31614 14.2409 3.17568C15.1004 4.03522 15.5833 5.20101 15.5833 6.41658C15.5833 7.63216 15.1004 8.79795 14.2409 9.65749C13.3814 10.517 12.2156 10.9999 11 10.9999C9.78442 10.9999 8.61864 10.517 7.75909 9.65749C6.89955 8.79795 6.41667 7.63216 6.41667 6.41658C6.41667 5.20101 6.89955 4.03522 7.75909 3.17568C8.61864 2.31614 9.78442 1.83325 11 1.83325ZM11 3.66659C10.6389 3.66659 10.2813 3.73772 9.94762 3.87592C9.61398 4.01412 9.31082 4.21668 9.05546 4.47204C8.8001 4.7274 8.59753 5.03056 8.45933 5.36421C8.32113 5.69785 8.25 6.05545 8.25 6.41658C8.25 6.77772 8.32113 7.13532 8.45933 7.46896C8.59753 7.80261 8.8001 8.10577 9.05546 8.36113C9.31082 8.61649 9.61398 8.81905 9.94762 8.95725C10.2813 9.09545 10.6389 9.16658 11 9.16658C11.7293 9.16658 12.4288 8.87685 12.9445 8.36113C13.4603 7.8454 13.75 7.14593 13.75 6.41658C13.75 5.68724 13.4603 4.98777 12.9445 4.47204C12.4288 3.95632 11.7293 3.66659 11 3.66659Z" fill="#001B6E"/>
</g>
<defs>
<clipPath id="clip0_1_264">
<rect width="22" height="22" fill="white"/>
</clipPath>
</defs>
</svg>
