<svg width="15" height="15" viewBox="0 0 15 15" fill="none" xmlns="http://www.w3.org/2000/svg">
<path fill-rule="evenodd" clip-rule="evenodd" d="M7.50009 8.85506L12.9214 14.2764C13.1021 14.4509 13.3442 14.5475 13.5955 14.5453C13.8468 14.5432 14.0871 14.4424 14.2648 14.2647C14.4425 14.087 14.5433 13.8466 14.5454 13.5954C14.5476 13.3441 14.451 13.102 14.2765 12.9213L8.85518 7.49998L14.2765 2.07869C14.451 1.89794 14.5476 1.65587 14.5454 1.4046C14.5433 1.15332 14.4425 0.912962 14.2648 0.73528C14.0871 0.557597 13.8468 0.45681 13.5955 0.454626C13.3442 0.452443 13.1021 0.549037 12.9214 0.723605L7.50009 6.1449L2.0788 0.723605C1.89725 0.553352 1.65657 0.460414 1.40771 0.464455C1.15885 0.468496 0.921321 0.5692 0.745388 0.745258C0.569454 0.921316 0.468918 1.15891 0.465053 1.40778C0.461188 1.65665 0.554297 1.89725 0.724678 2.07869L6.14501 7.49998L0.72372 12.9213C0.632189 13.0097 0.559182 13.1154 0.508956 13.2323C0.458731 13.3493 0.432294 13.475 0.431189 13.6023C0.430083 13.7295 0.45433 13.8557 0.502516 13.9735C0.550702 14.0913 0.621861 14.1983 0.711841 14.2882C0.801822 14.3782 0.908822 14.4494 1.0266 14.4976C1.14437 14.5457 1.27057 14.57 1.39781 14.5689C1.52506 14.5678 1.65081 14.5413 1.76773 14.4911C1.88465 14.4409 1.9904 14.3679 2.0788 14.2764L7.50009 8.85506Z" fill="#AD0062"/>
</svg>
