<svg width="23" height="23" viewBox="0 0 23 23" fill="none" xmlns="http://www.w3.org/2000/svg">
<g clip-path="url(#clip0_205_43)">
<path d="M19.1666 16.7709C19.5358 16.7711 19.8907 16.9133 20.1579 17.1681C20.425 17.4228 20.584 17.7706 20.6017 18.1393C20.6195 18.5081 20.4947 18.8695 20.2532 19.1487C20.0117 19.428 19.672 19.6036 19.3046 19.6392L19.1666 19.6459H3.83325C3.46409 19.6457 3.10914 19.5035 2.84196 19.2488C2.57479 18.994 2.41587 18.6462 2.39812 18.2775C2.38038 17.9088 2.50519 17.5473 2.74667 17.2681C2.98815 16.9889 3.32781 16.8132 3.69525 16.7776L3.83325 16.7709H19.1666ZM19.1666 10.0626C19.5478 10.0626 19.9135 10.214 20.1831 10.4836C20.4526 10.7532 20.6041 11.1188 20.6041 11.5001C20.6041 11.8813 20.4526 12.247 20.1831 12.5165C19.9135 12.7861 19.5478 12.9376 19.1666 12.9376H3.83325C3.452 12.9376 3.08637 12.7861 2.81679 12.5165C2.5472 12.247 2.39575 11.8813 2.39575 11.5001C2.39575 11.1188 2.5472 10.7532 2.81679 10.4836C3.08637 10.214 3.452 10.0626 3.83325 10.0626H19.1666ZM19.1666 3.35425C19.5478 3.35425 19.9135 3.5057 20.1831 3.77528C20.4526 4.04487 20.6041 4.4105 20.6041 4.79175C20.6041 5.173 20.4526 5.53863 20.1831 5.80821C19.9135 6.0778 19.5478 6.22925 19.1666 6.22925H3.83325C3.452 6.22925 3.08637 6.0778 2.81679 5.80821C2.5472 5.53863 2.39575 5.173 2.39575 4.79175C2.39575 4.4105 2.5472 4.04487 2.81679 3.77528C3.08637 3.5057 3.452 3.35425 3.83325 3.35425H19.1666Z" fill="#AD0062"/>
</g>
<defs>
<clipPath id="clip0_205_43">
<rect width="23" height="23" fill="white"/>
</clipPath>
</defs>
</svg>
