<svg width="22" height="22" viewBox="0 0 22 22" fill="none" xmlns="http://www.w3.org/2000/svg">
<g clip-path="url(#clip0_205_36)">
<path fill-rule="evenodd" clip-rule="evenodd" d="M9.62499 1.83325C8.38253 1.83336 7.15811 2.13059 6.05389 2.70014C4.94967 3.26969 3.99766 4.09505 3.27729 5.10736C2.55692 6.11967 2.08908 7.28957 1.9128 8.51946C1.73653 9.74935 1.85693 11.0036 2.26395 12.1775C2.67098 13.3513 3.35283 14.4109 4.25262 15.2677C5.15241 16.1244 6.24405 16.7536 7.43646 17.1027C8.62887 17.4518 9.88747 17.5107 11.1073 17.2744C12.327 17.0382 13.4726 16.5136 14.4485 15.7446L17.7962 19.0923C17.969 19.2592 18.2006 19.3516 18.4409 19.3495C18.6813 19.3474 18.9112 19.251 19.0812 19.0811C19.2511 18.9111 19.3475 18.6812 19.3496 18.4409C19.3517 18.2005 19.2593 17.969 19.0923 17.7961L15.7447 14.4484C16.6503 13.2995 17.2142 11.9188 17.3718 10.4643C17.5294 9.00988 17.2744 7.54044 16.6359 6.22417C15.9973 4.9079 15.0011 3.798 13.7613 3.02146C12.5214 2.24493 11.088 1.83315 9.62499 1.83325ZM3.66666 9.62492C3.66666 8.04467 4.29441 6.52914 5.41181 5.41174C6.52921 4.29434 8.04474 3.66659 9.62499 3.66659C11.2052 3.66659 12.7208 4.29434 13.8382 5.41174C14.9556 6.52914 15.5833 8.04467 15.5833 9.62492C15.5833 11.2052 14.9556 12.7207 13.8382 13.8381C12.7208 14.9555 11.2052 15.5833 9.62499 15.5833C8.04474 15.5833 6.52921 14.9555 5.41181 13.8381C4.29441 12.7207 3.66666 11.2052 3.66666 9.62492Z" fill="#001B6E"/>
</g>
<defs>
<clipPath id="clip0_205_36">
<rect width="22" height="22" fill="white"/>
</clipPath>
</defs>
</svg>
