<svg width="22" height="22" viewBox="0 0 22 22" fill="none" xmlns="http://www.w3.org/2000/svg">
<g clip-path="url(#clip0_205_26)">
<path fill-rule="evenodd" clip-rule="evenodd" d="M6.87492 17.4166C7.23959 17.4166 7.58933 17.5615 7.84719 17.8193C8.10505 18.0772 8.24992 18.4269 8.24992 18.7916C8.24992 19.1563 8.10505 19.506 7.84719 19.7639C7.58933 20.0217 7.23959 20.1666 6.87492 20.1666C6.51025 20.1666 6.16051 20.0217 5.90265 19.7639C5.64478 19.506 5.49992 19.1563 5.49992 18.7916C5.49992 18.4269 5.64478 18.0772 5.90265 17.8193C6.16051 17.5615 6.51025 17.4166 6.87492 17.4166ZM16.0416 17.4166C16.4063 17.4166 16.756 17.5615 17.0139 17.8193C17.2717 18.0772 17.4166 18.4269 17.4166 18.7916C17.4166 19.1563 17.2717 19.506 17.0139 19.7639C16.756 20.0217 16.4063 20.1666 16.0416 20.1666C15.6769 20.1666 15.3272 20.0217 15.0693 19.7639C14.8115 19.506 14.6666 19.1563 14.6666 18.7916C14.6666 18.4269 14.8115 18.0772 15.0693 17.8193C15.3272 17.5615 15.6769 17.4166 16.0416 17.4166ZM2.87642 1.83325C3.57175 1.83333 4.24124 2.09682 4.75012 2.57066C5.259 3.0445 5.56948 3.69353 5.61909 4.38708L5.63284 4.58325H18.1518C18.4203 4.58321 18.6856 4.64218 18.9289 4.75599C19.1722 4.8698 19.3875 5.03566 19.5596 5.24186C19.7316 5.44805 19.8563 5.68954 19.9248 5.94924C19.9933 6.20894 20.0038 6.48052 19.9558 6.74475L18.4552 14.9948C18.3783 15.4172 18.1556 15.7992 17.826 16.0743C17.4963 16.3494 17.0805 16.5 16.6512 16.4999H6.35334C5.88963 16.4999 5.44315 16.3242 5.10381 16.0082C4.76448 15.6922 4.55751 15.2593 4.52459 14.7968L3.79125 4.51817C3.77477 4.28666 3.67109 4.07003 3.50113 3.91198C3.33118 3.75393 3.10759 3.66623 2.8755 3.66659H2.74992C2.5068 3.66659 2.27365 3.57001 2.10174 3.3981C1.92983 3.22619 1.83325 2.99303 1.83325 2.74992C1.83325 2.5068 1.92983 2.27365 2.10174 2.10174C2.27365 1.92983 2.5068 1.83325 2.74992 1.83325H2.87642ZM18.1518 6.41658H5.76392L6.35334 14.6666H16.6512L18.1518 6.41658Z" fill="#001B6E"/>
</g>
<defs>
<clipPath id="clip0_205_26">
<rect width="22" height="22" fill="white"/>
</clipPath>
</defs>
</svg>
