<svg width="30" height="30" viewBox="0 0 30 30" fill="none" xmlns="http://www.w3.org/2000/svg">
<g clip-path="url(#clip0_1_736)">
<path fill-rule="evenodd" clip-rule="evenodd" d="M20 3.75C21.6576 3.75 23.2473 4.40848 24.4194 5.58058C25.5915 6.75269 26.25 8.3424 26.25 10V20C26.25 21.6576 25.5915 23.2473 24.4194 24.4194C23.2473 25.5915 21.6576 26.25 20 26.25H10C8.3424 26.25 6.75269 25.5915 5.58058 24.4194C4.40848 23.2473 3.75 21.6576 3.75 20V10C3.75 8.3424 4.40848 6.75269 5.58058 5.58058C6.75269 4.40848 8.3424 3.75 10 3.75H20ZM20 6.25H10C9.00544 6.25 8.05161 6.64509 7.34835 7.34835C6.64509 8.05161 6.25 9.00544 6.25 10V20C6.25 20.9946 6.64509 21.9484 7.34835 22.6517C8.05161 23.3549 9.00544 23.75 10 23.75H20C20.9946 23.75 21.9484 23.3549 22.6517 22.6517C23.3549 21.9484 23.75 20.9946 23.75 20V10C23.75 9.00544 23.3549 8.05161 22.6517 7.34835C21.9484 6.64509 20.9946 6.25 20 6.25ZM15 10C16.3261 10 17.5979 10.5268 18.5355 11.4645C19.4732 12.4021 20 13.6739 20 15C20 16.3261 19.4732 17.5979 18.5355 18.5355C17.5979 19.4732 16.3261 20 15 20C13.6739 20 12.4021 19.4732 11.4645 18.5355C10.5268 17.5979 10 16.3261 10 15C10 13.6739 10.5268 12.4021 11.4645 11.4645C12.4021 10.5268 13.6739 10 15 10ZM15 12.5C14.337 12.5 13.7011 12.7634 13.2322 13.2322C12.7634 13.7011 12.5 14.337 12.5 15C12.5 15.663 12.7634 16.2989 13.2322 16.7678C13.7011 17.2366 14.337 17.5 15 17.5C15.663 17.5 16.2989 17.2366 16.7678 16.7678C17.2366 16.2989 17.5 15.663 17.5 15C17.5 14.337 17.2366 13.7011 16.7678 13.2322C16.2989 12.7634 15.663 12.5 15 12.5ZM20.625 8.125C20.9565 8.125 21.2745 8.2567 21.5089 8.49112C21.7433 8.72554 21.875 9.04348 21.875 9.375C21.875 9.70652 21.7433 10.0245 21.5089 10.2589C21.2745 10.4933 20.9565 10.625 20.625 10.625C20.2935 10.625 19.9755 10.4933 19.7411 10.2589C19.5067 10.0245 19.375 9.70652 19.375 9.375C19.375 9.04348 19.5067 8.72554 19.7411 8.49112C19.9755 8.2567 20.2935 8.125 20.625 8.125Z" fill="#C831FF"/>
</g>
<defs>
<clipPath id="clip0_1_736">
<rect width="30" height="30" fill="white"/>
</clipPath>
</defs>
</svg>
