<svg width="24" height="24" viewBox="0 0 24 24" fill="none" xmlns="http://www.w3.org/2000/svg">
<g clip-path="url(#clip0_1_724)">
<path fill-rule="evenodd" clip-rule="evenodd" d="M17.991 6.01009L5.399 10.5631L9.594 12.9911L13.293 9.29109C13.4806 9.10358 13.7351 8.99829 14.0004 8.99839C14.2656 8.99848 14.52 9.10395 14.7075 9.29159C14.895 9.47923 15.0003 9.73367 15.0002 9.99894C15.0001 10.2642 14.8946 10.5186 14.707 10.7061L11.007 14.4061L13.437 18.6001L17.991 6.01009ZM18.314 3.76609C19.509 3.33309 20.667 4.49109 20.234 5.68609L14.952 20.2911C14.518 21.4891 12.882 21.6351 12.243 20.5321L9.026 14.9741L3.468 11.7571C2.365 11.1181 2.511 9.48209 3.709 9.04809L18.314 3.76609Z" fill="#FF0090"/>
</g>
<defs>
<clipPath id="clip0_1_724">
<rect width="24" height="24" fill="white"/>
</clipPath>
</defs>
</svg>
