<svg width="30" height="30" viewBox="0 0 30 30" fill="none" xmlns="http://www.w3.org/2000/svg">
<g clip-path="url(#clip0_1_740)">
<path fill-rule="evenodd" clip-rule="evenodd" d="M17.5 3.75C17.8315 3.75 18.1495 3.8817 18.3839 4.11612C18.6183 4.35054 18.75 4.66848 18.75 5C18.7507 6.1524 19.1491 7.26926 19.8778 8.16198C20.6066 9.05471 21.6211 9.6686 22.75 9.9C23.0749 9.9663 23.3601 10.159 23.543 10.4356C23.7258 10.7122 23.7913 11.0501 23.725 11.375C23.6587 11.6999 23.466 11.9851 23.1894 12.168C22.9128 12.3508 22.5749 12.4163 22.25 12.35C20.9475 12.0838 19.7394 11.4754 18.75 10.5875V21.25C18.75 22.4861 18.3834 23.6945 17.6967 24.7223C17.0099 25.7501 16.0338 26.5512 14.8918 27.0242C13.7497 27.4973 12.4931 27.6211 11.2807 27.3799C10.0683 27.1387 8.95466 26.5435 8.08058 25.6694C7.2065 24.7953 6.61124 23.6817 6.37009 22.4693C6.12893 21.2569 6.2527 20.0003 6.72575 18.8582C7.1988 17.7162 7.99987 16.7401 9.02768 16.0533C10.0555 15.3666 11.2639 15 12.5 15C12.8315 15 13.1495 15.1317 13.3839 15.3661C13.6183 15.6005 13.75 15.9185 13.75 16.25C13.75 16.5815 13.6183 16.8995 13.3839 17.1339C13.1495 17.3683 12.8315 17.5 12.5 17.5C11.7583 17.5 11.0333 17.7199 10.4166 18.132C9.79992 18.544 9.31928 19.1297 9.03545 19.8149C8.75162 20.5002 8.67736 21.2542 8.82205 21.9816C8.96674 22.709 9.3239 23.3772 9.84834 23.9016C10.3728 24.4261 11.041 24.7832 11.7684 24.9279C12.4958 25.0726 13.2498 24.9984 13.9351 24.7145C14.6203 24.4307 15.2059 23.9501 15.618 23.3334C16.0301 22.7167 16.25 21.9917 16.25 21.25V5C16.25 4.66848 16.3817 4.35054 16.6161 4.11612C16.8505 3.8817 17.1685 3.75 17.5 3.75Z" fill="#FF0090"/>
</g>
<defs>
<clipPath id="clip0_1_740">
<rect width="30" height="30" fill="white"/>
</clipPath>
</defs>
</svg>
